<svg xmlns="http://www.w3.org/2000/svg" width="32" height="32" viewBox="0 0 16 16">
    <g fill="none" stroke-linecap="round" stroke-linejoin="round">
        <path stroke="#ed8796" d="M7.54 13.5H3A1.5 1.5 0 0 1 1.5 12V3c0-.83.67-1.5 1.5-1.5h9c.83 0 1.5.67 1.5 1.5v3.5"/>
        <path class="stroke" opacity="0.6" d="M15 11.5c.27 0 .5.22.5.5v3a.5.5 0 0 1-.5.5h-5a.5.5 0 0 1-.5-.5v-3c0-.28.22-.5.5-.5zm-4 0V10a1.5 1.5 0 0 1 3 0v1.5"/>
        <path class="fill" d="M9.5 9V5.5h-2v6h-4v-8h8v3"/>
    </g>
    <style>
        .stroke { stroke: #000; }
        .fill { fill: #000; }
        @media (prefers-color-scheme: dark) {
            .stroke { stroke: #FFF; }
            .fill { fill: #FFF; }
        }
    </style>
</svg>
