<svg xmlns="http://www.w3.org/2000/svg" fill="currentColor" viewBox="0 0 24 24" width="24" height="24" style="width: 1.25em; height: 1.25em">
  <path d="M12 7.25a.75.75 0 0 1 .75.75v4a.75.75 0 0 1-1.5 0V8a.75.75 0 0 1 .75-.75M12 16a1 1 0 1 0 0-2 1 1 0 0 0 0 2"/>
  <path d="M8.72 2.05c1.45-.5 2.34-.8 3.28-.8s1.83.3 3.28.8l.72.25q2.23.74 3.45 1.23.6.25 1.05.5c.27.16.55.35.74.62.18.26.28.59.34.9q.09.5.12 1.16.06 1.32.05 3.68v1.6c0 6.1-4.6 9.03-7.35 10.23h-.02q-.5.25-1.03.39c-.39.1-.8.14-1.35.14a5 5 0 0 1-2.37-.52l-.03-.02C6.86 21.02 2.25 18.1 2.25 12v-1.6q-.01-2.37.05-3.68.03-.66.12-1.16.08-.48.34-.9.32-.4.74-.62.44-.25 1.05-.5Q5.78 3.05 8 2.3zm3.28.7c-.66 0-1.3.21-2.92.76l-.57.2q-2.25.76-3.4 1.21a7 7 0 0 0-.86.4l-.2.14-.06.05-.03.08-.06.24a7 7 0 0 0-.1.96c-.05.84-.05 2.02-.05 3.63v1.57c0 5.18 3.87 7.72 6.45 8.85.37.16.59.25.82.32.23.05.51.09.98.09s.75-.04.98-.1c.24-.05.45-.15.82-.31 2.58-1.13 6.45-3.67 6.45-8.85v-1.57c0-1.61 0-2.79-.05-3.63a7 7 0 0 0-.1-.96l-.06-.24-.03-.08-.06-.05-.2-.14a7 7 0 0 0-.87-.4c-.77-.31-1.87-.7-3.39-1.2l-.57-.2c-1.62-.56-2.26-.77-2.92-.77"/>
</svg>
