<svg xmlns="http://www.w3.org/2000/svg" fill="currentColor" viewBox="0 0 24 24" width="24" height="24" style="width: 1.25em; height: 1.25em">
  <path d="M17.03 9.78a.75.75 0 0 0-1.06-1.06l-5.47 5.47-2.47-2.47a.75.75 0 0 0-1.06 1.06l3 3a.75.75 0 0 0 1.06 0z"/>
  <path d="m14.14 1.2 1.37 1.01q.42.3.93.38l1.69.26a3.6 3.6 0 0 1 3.02 3.02l.26 1.69q.08.52.38.93l1.01 1.37a3.6 3.6 0 0 1 0 4.28l-1.01 1.37a2 2 0 0 0-.38.93l-.26 1.69a3.6 3.6 0 0 1-3.02 3.02l-1.69.26a2 2 0 0 0-.93.38l-1.37 1.01a3.6 3.6 0 0 1-4.28 0L8.5 21.79a2 2 0 0 0-.93-.38l-1.69-.26a3.6 3.6 0 0 1-3.02-3.02l-.26-1.69a2 2 0 0 0-.38-.93L1.2 14.14a3.6 3.6 0 0 1 0-4.28L2.21 8.5q.3-.43.38-.93l.26-1.69a3.6 3.6 0 0 1 3.02-3.02l1.69-.26q.52-.08.93-.38L9.86 1.2a3.6 3.6 0 0 1 4.28 0m-3.39 1.2L9.38 3.43a3.6 3.6 0 0 1-1.6.66l-1.68.25A2.1 2.1 0 0 0 4.33 6.1l-.25 1.7a3.6 3.6 0 0 1-.66 1.59L2.4 10.75a2.1 2.1 0 0 0 0 2.5l1 1.37q.53.72.67 1.6l.25 1.68c.14.91.86 1.63 1.77 1.77l1.69.25a3.6 3.6 0 0 1 1.59.66l1.37 1.01a2.1 2.1 0 0 0 2.5 0l1.37-1a3.6 3.6 0 0 1 1.6-.67l1.68-.26a2.1 2.1 0 0 0 1.77-1.76l.25-1.69a3.6 3.6 0 0 1 .66-1.59l1.01-1.37a2.1 2.1 0 0 0 0-2.5l-1-1.37a3.6 3.6 0 0 1-.67-1.6l-.26-1.68a2.1 2.1 0 0 0-1.76-1.77l-1.69-.25a3.6 3.6 0 0 1-1.59-.66L13.25 2.4a2.1 2.1 0 0 0-2.5 0"/>
</svg>
