<svg xmlns="http://www.w3.org/2000/svg" fill="currentColor" viewBox="0 0 24 24" width="24" height="24" style="width: 1.25em; height: 1.25em">
  <path d="M17.03 9.78a.75.75 0 0 0-1.06-1.06l-5.47 5.47-2.47-2.47a.75.75 0 0 0-1.06 1.06l3 3a.75.75 0 0 0 1.06 0zM23 19h1v5h-8v-5h1v-1a3 3 0 0 1 6 0zm-2 0v-1a1 1 0 0 0-2 0v1z"/>
  <path d="M12 .5c.77 0 1.52.24 2.14.7l1.37 1.01q.42.3.93.38l1.69.26a3.6 3.6 0 0 1 3.02 3.02l.26 1.7q.08.51.38.92l1.01 1.37a3.6 3.6 0 0 1 0 4.28l-.01.02q-.63-.46-1.37-.7l.16-.21a2.1 2.1 0 0 0 0-2.5l-1-1.37a3.6 3.6 0 0 1-.67-1.6l-.26-1.68a2.1 2.1 0 0 0-1.76-1.77l-1.69-.25a3.6 3.6 0 0 1-1.59-.66L13.25 2.4a2.1 2.1 0 0 0-2.5 0L9.38 3.43a3.6 3.6 0 0 1-1.6.66l-1.68.25A2.1 2.1 0 0 0 4.33 6.1l-.25 1.7a3.6 3.6 0 0 1-.66 1.6L2.4 10.74a2.1 2.1 0 0 0 0 2.5l1 1.37q.53.72.67 1.6l.25 1.68c.14.91.86 1.63 1.77 1.77l1.69.25a3.6 3.6 0 0 1 1.59.66l1.37 1.01a2.1 2.1 0 0 0 2.5 0l1.01-.74v1.87l-.11.08a3.6 3.6 0 0 1-4.28 0l-1.36-1a2 2 0 0 0-.93-.38l-1.69-.26a3.6 3.6 0 0 1-3.02-3.02l-.26-1.69a2 2 0 0 0-.38-.93L1.2 14.14a3.6 3.6 0 0 1 0-4.28L2.21 8.5q.3-.43.38-.93l.26-1.69a3.6 3.6 0 0 1 3.02-3.02l1.69-.26q.52-.08.93-.38L9.86 1.2A3.6 3.6 0 0 1 12 .5M20.9 19a3.6 3.6 0 0 1-2.77 2.15l-1.69.26a2 2 0 0 0-.44.11v-1.56l.21-.04 1.68-.26a2 2 0 0 0 1.17-.59l.07-.07zm-.58-3.98a3 3 0 0 1 1.43.55 2 2 0 0 0-.34.87l-.26 1.69q-.05.3-.15.61V18a1 1 0 0 0-1.21-.98l.12-.81q.1-.63.4-1.2"/>
</svg>
